# xmcd CD database file generated by OrangeCD 5.2
#
# Track frame offsets:
#	150
#	17945
#	35875
#	49007
#	61920
#	75667
#	87677
#	101862
#	119097
#	131617
#	151875
#	167117
#	184750
#	200550
#
# Disc length: 2879 seconds
#
# Revision: 2
# Processed by: cddbd v1.5.1PL0 Copyright (c) Steve Scherf et al.
# Submitted via: OrangeCD 5.2
#
DISCID=ca0b3d0e
DTITLE=Sham Rock - The Album
DYEAR=2003
DGENRE=Celtic
TTITLE0=Tell Me Ma
TTITLE1=Danny Boy
TTITLE2=Whiskey In The Jar
TTITLE3=I'm Carrying
TTITLE4=Watch Me Now
TTITLE5=The Battle Of New Orleans
TTITLE6=Parcel Of Rogues
TTITLE7=Mother's Song
TTITLE8=The Boy From Ballymore
TTITLE9=Rock Of Ages
TTITLE10=Lavender's Blue
TTITLE11=To Althea From Prison
TTITLE12=The Carnival Is Over
TTITLE13=Irish Stew (Live)
EXTD=
EXTT0=
EXTT1=
EXTT2=
EXTT3=
EXTT4=
EXTT5=
EXTT6=
EXTT7=
EXTT8=
EXTT9=
EXTT10=
EXTT11=
EXTT12=
EXTT13=
PLAYORDER=
